[align=center][b][size=6][color=limegreen]╬£╬ò╬ñ╬æ╬ô╬¢╬⌐╬ñ╬Ö╬ú╬£╬ò╬¥╬ƒ[/color][/b][/size]
[b][size=5][color=Slategray]Paranorman 2012
ParaNorman: ╬£╬╣╬▒ ╬£╬╡╧ä╬▒╧å╧à╧â╬╣╬║╬« ╬Ö╧â╧ä╬┐╧ü╬»╬▒
[/color][/b][/size]


[IMG]http://www.rhodes.com.gr/html/images/articles/9416.jpg[/IMG]


[size=3][color=Crimson] 	
╬ò╬»╬┤╬┐╧é ╬ñ╬▒╬╣╬╜╬»╬▒╧é: Animation | Adventure | Comedy
╬ò╬╗╬╗╬╖╬╜╬╣╬║╬« ╬á╧ü╬╡╬╝╬╣╬¡╧ü╬▒: 13 September 2012
╬ú╬║╬╖╬╜╬┐╬╕╬¡╧ä╬╖╧é: Chris Butler, Sam Fell
╬ú╬╡╬╜╬¼╧ü╬╣╬┐: Chris Butler
╬ù╬╕╬┐╧Ç╬┐╬╣╬┐╬»: Kodi Smit-McPhee, Anna Kendrick and Christopher Mintz-Plasse
╬ö╬╣╬¼╧ü╬║╬╡╬╣╬▒: 92' ╬¢╬╡╧Ç╧ä╬¼
╬Ü╬▒╧ä╬▒╬╗╬╗╬╖╬╗╧î╧ä╬╖╧ä╬▒ ╬ñ╬▒╬╣╬╜╬»╬▒╧é: ╬ò╧Ç╬╣╬╕╧à╬╝╬╖╧ä╬« ╬╖ ╬│╬┐╬╜╬╣╬║╬« ╧â╧à╬╜╬▒╬»╬╜╬╡╧â╬╖ 
Imdb: 7.5/10
[/color]


[size=3][color=Lightgrey]
╬ê╬╜╬▒ ╬╝╬╣╬║╧ü╧î ╬▒╬│╧î╧ü╬╣, ╬┐ 11╧ç╧ü╬┐╬╜╬┐╧é ╬¥╧î╧ü╬╝╬▒╬╜, ╬╝╬┐╬╣╬¼╬╢╬╡╬╣ ╬╜╬▒ ╬╡╬»╬╜╬▒╬╣ ╧à╧Ç╬¡╧ü ╧ä╬┐╧à ╬┤╬¡╬┐╬╜╧ä╬┐╧é ╬╡╧Ç╬╣╬║╬┐╬╣╬╜╧ë╬╜╬╣╬▒╬║╧î╧é, ╬┤╬╡╬┤╬┐╬╝╬¡╬╜╬┐╧à ╧Ç╧ë╧é ╬┤╬╡╬╜ ╧â╧ä╬▒╬╝╬▒╧ä╬¼ ╧Ç╬┐╧ä╬¡ ╬╜╬▒ ╬▒╬║╬┐╧ì╬╡╬╣ ╬║╬▒╬╣ ╬╜╬▒ ╧â╧à╬╜╬┤╬╣╬▒╬╗╬¡╬│╬╡╧ä╬▒╬╣ ╬╝╬╡ ╬║╧î╧â╬╝╬┐ ╬╣╬┤╬»╧ë╧é ╬╝╬¼╬╗╬╣╧â╧ä╬▒ ╬╝╬╡ ╧ä╬┐ ╧à╧Ç╬╡╧ü╧Ç╬¡╧ü╬▒╬╜ ╬║╬▒╬╣ ╧â╧à╬│╬║╬╡╬║╧ü╬╣╬╝╬¡╬╜╬▒ ╬╝╬╡ ╧ä╬┐╧à╧é ╬╜╬╡╬║╧ü╬┐╧ì╧é (╧å╬▒╬╜╧ä╬¼╧â╬╝╬▒╧ä╬▒, ╬╢╧î╬╝╧Ç╬╣, ╬╝╬¼╬│╬╣╧â╧â╬╡╧é) ╧Ç╬┐╧à ╧å╬▒╬»╬╜╬╡╧ä╬▒╬╣ ╬╜╬▒ ╧ä╬┐╬╜ ╧Ç╧ü╬┐╧ä╬╣╬╝╬┐╧ì╬╜ ╬╣╬┤╬╣╬▒╬╣╧ä╬¡╧ü╧ë╧é. ╬£╬¼╬╗╬╣╧â╧ä╬▒, ╧Ç╬┐╬╗╬╗╬¡╧é ╧å╬┐╧ü╬¡╧é, ╬╖ ╧Ç╬▒╧ü╬¡╬▒ ╧ä╬┐╧à ╬▒╧Ç╧î ╧ä╬┐ ╧à╧Ç╬╡╧ü╧Ç╬¡╧ü╬▒╬╜ ╬╡╬»╬╜╬▒╬╣ ╧Ç╧ü╬┐╧ä╬╣╬╝╧î╧ä╬╡╧ü╬╖ ╬▒╧Ç╧î ╧ä╬╖╬╜ ╬»╬┤╬╣╬▒ ╧ä╬┐╧à ╧ä╬╖╬╜ ╬┐╬╣╬║╬┐╬│╬¡╬╜╬╡╬╣╬▒ ╧Ç╬┐╧à ╧å╬▒╬»╬╜╬╡╧ä╬▒╬╣ ╬╜╬▒ ╧ä╬┐╬╜ ╬╕╬╡╧ë╧ü╬╡╬», ╧î╧Ç╧ë╧é ╬║╬╣ ╬┐ ╧à╧Ç╧î╬╗╬┐╬╣╧Ç╬┐╧é ╬║╧î╧â╬╝╬┐╧é, ╧å╧ü╬╣╬║╬╣╧î. ╬î╧ä╬▒╬╜ ╬┐ ╬¥╧î╧ü╬╝╬▒╬╜ ╬║╬▒╬╗╬╡╬»╧ä╬▒╬╣ ╬╜╬▒ ╧â╧ä╬▒╬╝╬▒╧ä╬«╧â╬╡╬╣ ╧ä╬╖╬╜ ╬║╬▒╧ä╬¼╧ü╬▒ ╬╝╬╣╬▒╧é ╬║╬▒╬║╬╣╬¼╧é ╬╝╬¼╬│╬╣╧â╧â╬▒╧é ╧Ç╬┐╧à ╬▒╧Ç╬╡╬╣╬╗╬╡╬» ╬╜╬▒ ╬╛╧à╧Ç╬╜╬«╧â╬╡╬╣ ╧ä╬┐╧à╧é ╬╜╬╡╬║╧ü╬┐╧ì╧é ╬▒╧Ç╧î ╧ä╬┐╬╜ ╬▒╬╣╧Ä╬╜╬╣╬┐ ╧ì╧Ç╬╜╬┐, ╬┐╬╗╧î╬║╬╗╬╖╧ü╬╖ ╬╖ ╧Ç╧î╬╗╬╖, ╬▒╬╜╬▒╬│╬║╬▒╧â╧ä╬╣╬║╬¼, ╬▒╬╜╬▒╬│╬╜╧ë╧ü╬»╬╢╬╡╬╣ ╧ä╬╣╧é ╬╝╬╡╧ä╬▒╧å╧à╧â╬╣╬║╬¡╧é ╧ä╬┐╧à ╬┤╧à╬╜╬¼╬╝╬╡╬╣╧é ╬║╬▒╬╣ ╬╡╧Ç╬▒╧å╬»╬╡╧ä╬▒╬╣ ╧â╬╡ ╬▒╧à╧ä╬¡╧é ╧Ä╧â╧ä╬╡ ╬╜╬▒ ╧â╧ë╬╕╬╡╬».[/color][/size]



[IMG]http://i.imgur.com/4tMgI.png[/IMG]
[IMG]http://i.imgur.com/r4z0J.png[/IMG]
[IMG]http://i.imgur.com/mYbNg.png[/IMG]
[IMG]http://i.imgur.com/H3bMa.png[/IMG]
[IMG]http://i.imgur.com/T7uY3.png[/IMG]
[IMG]http://i.imgur.com/mDv5I.png[/IMG]




[b][size=3][color=Rosybrown]
BRRRip By: C0r3y [KUTeam]
Kam.Upload Team For MyDLmS.Com
[/color][/b][/size]






[b][color=grey][size=2]
General
Complete name                    : Paranorman.2012.576.BRRip.XViD.GR.AUDIO.AC3-KUTeam.avi
Format                           : AVI
Format/Info                      : Audio Video Interleave
File size                        : 1.41 GiB
Duration                         : 1h 28mn
Overall bit rate                 : 2 287 Kbps
Writing application              : VirtualDubMod 1.5.10.2 (build 2542/release)
Writing library                  : VirtualDubMod build 2542/release

Video
ID                               : 0
Format                           : MPEG-4 Visual
Format profile                   : Advanced Simple@L5
Format settings, BVOP            : 1
Format settings, QPel            : No
Format settings, GMC             : No warppoints
Format settings, Matrix          : Default (H.263)
Muxing mode                      : Packed bitstream
Codec ID                         : XVID
Codec ID/Hint                    : XviD
Duration                         : 1h 28mn
Bit rate                         : 1 895 Kbps
Width                            : 1 024 pixels
Height                           : 432 pixels
Display aspect ratio             : 2.35:1
Frame rate                       : 25.000 fps
Color space                      : YUV
Chroma subsampling               : 4:2:0
Bit depth                        : 8 bits
Scan type                        : Progressive
Compression mode                 : Lossy
Bits/(Pixel*Frame)               : 0.171
Stream size                      : 1.17 GiB (83%)
Writing library                  : XviD 64

Audio
ID                               : 1
Format                           : AC-3
Format/Info                      : Audio Coding 3
Mode extension                   : CM (complete main)
Codec ID                         : 2000
Duration                         : 1h 28mn
Bit rate mode                    : Constant
Bit rate                         : 384 Kbps
Channel(s)                       : 6 channels
Channel positions                : Front: L C R, Side: L R, LFE
Sampling rate                    : 48.0 KHz
Bit depth                        : 16 bits
Compression mode                 : Lossy
Stream size                      : 243 MiB (17%)
Alignment                        : Split accross interleaves
Interleave, duration             : 64 ms (1.60 video frames)
Interleave, preload duration     : 500 ms
[/size][/color][/b]